<svg width="276" height="93" viewBox="0 0 276 93" fill="none" xmlns="http://www.w3.org/2000/svg">
<g clip-path="url(#clip0_1_959)">
<g opacity="0.15">
<path d="M249.813 82.639L251.085 79.3969L267.054 85.7068L272.174 69.2871L275.5 70.3329L269.266 90.3259L249.813 82.639Z" fill="#201F9D"/>
<path d="M2.24451 92.0688C2.01812 92.0688 1.7917 92.0165 1.56531 91.9294C0.677151 91.5633 0.259197 90.5349 0.642323 89.6459C8.0262 72.163 18.597 56.4754 32.0586 43.0015C45.5203 29.5276 61.211 18.9471 78.6606 11.5391C96.7546 3.88704 115.963 0 135.764 0C155.564 0 174.755 3.88704 192.849 11.5391C210.316 18.9297 225.99 29.5101 239.451 43.0015C251.99 55.5515 262.038 70.0713 269.335 86.1424C269.736 87.0139 269.353 88.0597 268.465 88.4432C267.576 88.8441 266.549 88.4606 266.166 87.5717C259.043 71.8667 249.221 57.6955 236.979 45.4418C223.83 32.2816 208.523 21.9452 191.474 14.7289C173.815 7.25116 155.077 3.4687 135.746 3.4687C116.416 3.4687 97.6776 7.25116 80.0189 14.7289C62.9699 21.9452 47.6623 32.2816 34.5141 45.4418C21.366 58.6019 11.0389 73.9235 3.82921 90.9881C3.56799 91.6679 2.92368 92.0688 2.24451 92.0688Z" fill="#201F9D"/>
</g>
</g>
<defs>
<clipPath id="clip0_1_959">
<rect width="275" height="93" fill="white" transform="translate(0.5)"/>
</clipPath>
</defs>
</svg>
